<svg width="512" height="512" fill="none" xmlns="http://www.w3.org/2000/svg" viewBox="0 0 652.53 652.45">
<path d="M1279.5,1209.26v-11.42c-0.23-4.18.81-8.25,1-12.4a299.28,299.28,0,0,1,5.12-42.57A326.2,326.2,0,0,1,1517.2,890,329.82,329.82,0,0,1,1568,880c10.7-1.26,21.45-1.9,32.22-2.3h17.4a4.71,4.71,0,0,0,2.63.45,324,324,0,0,1,96.79,19.06c7.27,2.66,14.61,5.18,21.43,9,3.47,1.93,7.21,3.38,10.86,5s7.3,3.82,11,5.72c5.18,2.69,10.19,5.67,15.19,8.67,9,5.38,17.66,11.17,26,17.37a318.62,318.62,0,0,1,65.85,65.81,152.38,152.38,0,0,1,9.76,14c-2.08-.16-3.28,1.24-4.56,2.53L1760.79,1137c-0.45.45-.88,0.91-1.34,1.35a3.38,3.38,0,0,0-1.06,2.42c-0.67-.46-1.35-0.89-2-1.38a71.48,71.48,0,0,0-16.69-9.54,94.22,94.22,0,0,0-46.65-6c-24.55,2.81-43.71,14.81-57.91,34.92-0.39.55-.52,1.37-1.67,1.61,0-.93,0-1.79,0-2.65q0-12.5,0-25c0-2.39,0-2.43-2.32-2.43h-63.87c-2.41,0-2.42,0-2.43,2.61q0,13.18,0,26.36,0,101.1,0,202.2c-1.67,0-2.55,1.22-3.56,2.23l-117.16,117.15-1,1a5,5,0,0,0-1.7,3.58,8.78,8.78,0,0,1-2.62-1.37,328.63,328.63,0,0,1-85.62-74,314,314,0,0,1-21.41-29.41,320.5,320.5,0,0,1-23.83-44,330,330,0,0,1-21.33-66.25,300.76,300.76,0,0,1-5.89-43C1280.42,1221.32,1279.37,1215.33,1279.5,1209.26Zm167.94,36.69h0q0,56.25,0,112.5c0,3.36-.4,3.1,3,3.1q32.47,0,64.95,0c4.2,0,3.67.46,3.67-3.55q0-91.71,0-183.42,0-20.92,0-41.85c0-2.39,0-2.39-2.38-2.43H1451c-4,0-3.51-.37-3.51,3.44Q1447.43,1189.83,1447.44,1245.95Zm35.48-231.36a42.69,42.69,0,1,0,42.31,42.68A42.56,42.56,0,0,0,1482.92,1014.59Z" transform="translate(-1279.47 -877.66)"/>
<path d="M1877.13,1022.72a198.54,198.54,0,0,1,11.44,18.13,324,324,0,0,1,38.81,106.61c3.58,20.22,4.71,40.6,4.61,61.13-0.4,88.63-39.25,174.33-103.69,234.07a326.1,326.1,0,0,1-379.1,47.26,68.08,68.08,0,0,1-7.71-4.53,5,5,0,0,1,1.7-3.58l1-1,117.16-117.15c1-1,1.89-2.26,3.56-2.23l0,0a4.39,4.39,0,0,0,2.87.54h62.69a4.72,4.72,0,0,0,2.89-.5c0-1.08.11-2.17,0.11-3.25q0-38.32,0-76.64c0-14-.05-27.9,0-41.85,0-8.74,1.06-17.35,4.2-25.59,4.71-12.41,13.17-20.86,26.17-24.29a50,50,0,0,1,22.35-.78,31.6,31.6,0,0,1,21.78,14.82,46.61,46.61,0,0,1,5.31,12.44,90.29,90.29,0,0,1,2.79,24.2q0,58.57,0,117.13a20.29,20.29,0,0,1,0,2.17c-0.15,1.38.55,1.76,1.77,1.66,0.54,0,1.09,0,1.63,0q32.2,0,64.41,0c4,0,3.46.56,3.46-3.44q0-70.52,0-141a153.14,153.14,0,0,0-1.23-21.41c-1.7-12.12-5-23.7-11-34.45a78.16,78.16,0,0,0-14.58-18.49,0.72,0.72,0,0,0-.38-0.34l-0.12-.1-0.46-.42a2.2,2.2,0,0,1-1.21-1,3.38,3.38,0,0,1,1.06-2.42c0.46-.44.89-0.9,1.34-1.35l111.78-111.78C1873.86,1024,1875.05,1022.55,1877.13,1022.72Z" transform="translate(-1279.47 -877.66)"/>
</svg>