<svg width="512" height="512" fill="none" xmlns="http://www.w3.org/2000/svg" viewBox="0 0 512 512">
<path d="M1410,1337.13v-43c1.24-.47.95-1.6,1-2.53,0.94-8.77,2.2-17.49,3.84-26.17,19.69-104.43,107.64-188.36,213.16-203.49,6-.86,12.17-0.63,18-2.81h41c0.44,1.3,1.59.94,2.51,1,28.92,2.69,56.85,9.51,83,22.24,82.16,40,131.31,105,146.75,195.32,1,5.8.53,11.83,2.77,17.42v41c-1.23.49-.94,1.61-1,2.54a289.24,289.24,0,0,1-5,32.05c-21.64,101.78-109.35,183.46-212.08,197.64-5.63.78-11.48,0.48-16.88,2.77h-41c-0.84-1.53-2.36-.91-3.58-1a274.21,274.21,0,0,1-29.1-4.46c-44.07-9.4-83.17-28.87-116.78-58.88q-69-61.65-83.73-153.25C1411.94,1348,1412.51,1342.31,1410,1337.13Zm296.74,76.21c10.16,12.3,14.11,22.7,14.23,38.17,0.16,20.83.05,41.66,0.09,62.49,0,11.7,7,16.75,18.06,12.84,124.28-44,183.78-181.61,132.46-300.6-48.57-112.63-175.47-164.24-289.32-119-96.74,38.41-155.15,142.22-136.94,244.8,12.26,69.08,49.17,121.6,109.48,157.53a201,201,0,0,0,38.1,17.33c10.63,3.63,18-1.62,18-12.69,0-10.5-.09-21,0.07-31.49,0.05-3.28-.18-4.63-4.23-3.79a83.21,83.21,0,0,1-28.82,1.28c-20.27-2.91-35.51-12.66-43.51-32.14-5.56-13.54-13.21-25.3-26.07-33.15-3.25-2-8.29-4.71-6.68-8.84,1.84-4.73,7.6-3.83,12-3.26,14.76,1.91,24.89,10.74,32.18,22.94,15.18,25.43,39.43,28,62.87,19,1.67-.64,2.82-1.49,3.14-3.42a52.23,52.23,0,0,1,13.57-28c-11.17-1.61-21.62-3.27-31.81-6.16-25.95-7.34-47-21.05-59.23-46-6.94-14.11-9.81-29.26-11.09-44.79-2.16-26.22,2.66-50.43,20.34-70.93,1.54-1.79,1.53-3.35.89-5.45-4.54-14.94-4-29.89.15-44.81,3.5-12.66,4.29-13.1,17.17-10.44,16.1,3.33,30.19,11.14,43.87,19.8,2.34,1.48,4.39,2.34,7.35,1.52,35.34-9.69,70.73-9.55,106.08-.05a7.72,7.72,0,0,0,7-1.12,153,153,0,0,1,23.48-13.18c9.61-4.31,19.38-8,30.17-7.87,2.28,0,4,.36,4.93,3,6.07,17.22,8.07,34.67,2.9,52.45a6.74,6.74,0,0,0,1.5,7.14,82.88,82.88,0,0,1,18.18,38.36c2.85,14.94,2,29.85-.26,44.74-5.65,37.65-25.68,63.45-62.33,75.61C1732.53,1409.25,1719.94,1411.37,1706.74,1413.34Z" transform="translate(-1410 -1059.13)"/>
</svg>